<svg width="1149" height="56" viewBox="0 0 1149 56" fill="none" xmlns="http://www.w3.org/2000/svg">
<path d="M24.205 4.6202C26.1725 2.45993 29.5714 2.45993 31.5389 4.6202L34.0688 7.39818C35.063 8.48998 36.4921 9.08192 37.9674 9.01298L41.7206 8.83758C44.6391 8.70117 47.0428 11.1047 46.9064 14.0234L46.7309 17.7767C46.6619 19.2517 47.2539 20.6808 48.3457 21.6751L51.1237 24.205C53.2841 26.1725 53.2841 29.5714 51.1237 31.5389L48.3457 34.0688C47.2539 35.063 46.6619 36.4921 46.7309 37.9674L46.9064 41.7206C47.0428 44.6391 44.6391 47.0428 41.7206 46.9064L37.9674 46.7309C36.4921 46.6619 35.063 47.2539 34.0688 48.3457L31.5389 51.1237C29.5714 53.2841 26.1725 53.2841 24.205 51.1237L21.6751 48.3457C20.6808 47.2539 19.2517 46.6619 17.7767 46.7309L14.0234 46.9064C11.1047 47.0428 8.70117 44.6391 8.83758 41.7206L9.01298 37.9674C9.08192 36.4921 8.48998 35.063 7.39818 34.0688L4.6202 31.5389C2.45993 29.5714 2.45993 26.1725 4.6202 24.205L7.39818 21.6751C8.48998 20.6808 9.08192 19.2517 9.01298 17.7767L8.83758 14.0234C8.70117 11.1047 11.1047 8.70117 14.0234 8.83758L17.7767 9.01298C19.2517 9.08192 20.6808 8.48998 21.6751 7.39818L24.205 4.6202Z" stroke="white" stroke-width="5"/>
<path d="M20.4324 27.872L25.392 32.8317L35.3114 22.9124" stroke="white" stroke-width="5" stroke-linecap="round" stroke-linejoin="round"/>
<path d="M104.216 15.3281C105.776 16.0241 106.808 17.4881 106.808 19.3601C106.808 22.0721 104.696 23.8721 101.696 23.8721H94.736V7.55207H101.24C104.096 7.55207 106.16 9.28007 106.16 11.8241C106.16 13.3841 105.392 14.5841 104.216 15.3281ZM97.544 9.88007V14.3201H100.808C102.416 14.3201 103.304 13.4801 103.304 12.0401C103.304 10.6961 102.272 9.88007 100.76 9.88007H97.544ZM101.24 21.5441C102.848 21.5441 103.952 20.6081 103.952 19.0721C103.952 17.5841 102.896 16.6241 101.336 16.6241H97.544V21.5441H101.24ZM114.534 16.5761C116.982 16.5761 118.542 17.9681 118.542 20.2241C118.542 22.5281 116.982 23.8721 114.534 23.8721H109.374V13.1681H112.014V16.5761H114.534ZM120.342 13.1681H122.958V23.8721H120.342V13.1681ZM114.006 21.8561C115.23 21.8561 115.926 21.2801 115.926 20.2241C115.926 19.1441 115.23 18.5921 114.006 18.5921H112.014V21.8561H114.006ZM137.596 12.9041C140.548 12.9041 142.708 15.2561 142.708 18.4721C142.708 21.8081 140.572 24.1361 137.596 24.1361C136.108 24.1361 134.86 23.5601 133.996 22.6481C134.044 23.3921 134.044 24.2561 134.044 25.1921V29.1521H131.428V13.1681H133.204L133.708 14.8001C134.596 13.6241 135.94 12.9041 137.596 12.9041ZM137.044 21.8561C138.844 21.8561 140.044 20.4881 140.044 18.5441C140.044 16.5521 138.844 15.2081 137.044 15.2081C135.196 15.2081 133.948 16.5281 133.948 18.4961C133.948 20.5121 135.22 21.8561 137.044 21.8561ZM149.224 12.9761C151.96 12.9761 153.64 14.3681 153.64 16.9601V23.8721H151.888L151.408 22.2641C150.616 23.3921 149.344 24.0881 147.592 24.0881C145.624 24.0881 144.232 22.9841 144.232 21.0881C144.232 18.6401 146.392 17.2961 149.656 17.2961C150.208 17.2961 150.616 17.3201 151 17.3441V16.8641C151 15.7601 150.184 15.2081 148.816 15.2081C147.76 15.2081 146.584 15.5441 145.48 16.0721L144.736 14.0801C146.32 13.3601 147.784 12.9761 149.224 12.9761ZM148.36 22.1201C149.896 22.1201 151.024 20.9921 151.072 19.0481C150.64 19.0001 150.304 18.9761 149.824 18.9761C147.928 18.9761 146.824 19.6481 146.824 20.8241C146.824 21.6641 147.4 22.1201 148.36 22.1201ZM159.865 24.1121C158.089 24.1121 156.745 23.7041 155.545 22.9601L156.457 21.0641C157.513 21.7601 158.569 21.9761 159.577 21.9761C160.993 21.9761 161.593 21.3761 161.593 20.6081C161.593 19.8881 161.113 19.3601 159.961 19.3601H157.897V17.4161H159.745C160.633 17.4161 161.113 16.9601 161.113 16.2881C161.113 15.6881 160.585 15.1361 159.385 15.1361C158.521 15.1361 157.609 15.4241 156.817 15.8081L156.049 13.9361C157.249 13.3121 158.473 12.9761 159.793 12.9761C161.953 12.9761 163.705 14.0561 163.705 16.0001C163.705 16.9601 163.177 17.8721 162.289 18.2081C163.585 18.5921 164.233 19.6001 164.233 20.8241C164.233 22.7921 162.529 24.1121 159.865 24.1121ZM174 18.3761C175.08 18.7361 175.776 19.6001 175.776 20.8961C175.776 22.7921 174.36 23.8721 172.272 23.8721H166.608V13.1681H171.864C173.904 13.1681 175.296 14.2721 175.296 16.0241C175.296 17.2001 174.792 17.9201 174 18.3761ZM171.336 15.0641H169.152V17.5601H171.336C172.368 17.5601 172.8 16.9601 172.8 16.2641C172.8 15.6161 172.368 15.0641 171.336 15.0641ZM171.624 21.9761C172.68 21.9761 173.16 21.4481 173.16 20.6801C173.16 19.9121 172.68 19.3601 171.624 19.3601H169.152V21.9761H171.624ZM186.659 13.1681H187.667V23.8721H185.075V18.9761C185.075 18.5681 185.075 18.1601 185.123 17.7281C184.811 18.1121 184.499 18.4481 184.163 18.7841L179.171 23.8961H178.163V13.1681H180.755V17.9681C180.755 18.4241 180.755 18.8561 180.707 19.2881C181.067 18.8561 181.427 18.4721 181.787 18.0881L186.659 13.1681ZM198.141 18.3761C199.221 18.7361 199.917 19.6001 199.917 20.8961C199.917 22.7921 198.501 23.8721 196.413 23.8721H190.749V13.1681H196.005C198.045 13.1681 199.437 14.2721 199.437 16.0241C199.437 17.2001 198.933 17.9201 198.141 18.3761ZM195.477 15.0641H193.293V17.5601H195.477C196.509 17.5601 196.941 16.9601 196.941 16.2641C196.941 15.6161 196.509 15.0641 195.477 15.0641ZM195.765 21.9761C196.821 21.9761 197.301 21.4481 197.301 20.6801C197.301 19.9121 196.821 19.3601 195.765 19.3601H193.293V21.9761H195.765ZM206.622 12.9761C209.358 12.9761 211.038 14.3681 211.038 16.9601V23.8721H209.286L208.806 22.2641C208.014 23.3921 206.742 24.0881 204.99 24.0881C203.022 24.0881 201.63 22.9841 201.63 21.0881C201.63 18.6401 203.79 17.2961 207.054 17.2961C207.606 17.2961 208.014 17.3201 208.398 17.3441V16.8641C208.398 15.7601 207.582 15.2081 206.214 15.2081C205.158 15.2081 203.982 15.5441 202.878 16.0721L202.134 14.0801C203.718 13.3601 205.182 12.9761 206.622 12.9761ZM205.758 22.1201C207.294 22.1201 208.422 20.9921 208.47 19.0481C208.038 19.0001 207.702 18.9761 207.222 18.9761C205.326 18.9761 204.222 19.6481 204.222 20.8241C204.222 21.6641 204.798 22.1201 205.758 22.1201ZM218.823 12.8801C221.847 12.8801 223.695 14.9201 223.695 18.1361C223.695 18.5201 223.647 18.9521 223.599 19.3841H215.919C216.255 21.1121 217.599 22.0241 219.327 22.0241C220.551 22.0241 221.415 21.6641 222.159 21.0161L223.263 22.6961C222.039 23.6801 220.743 24.1841 219.087 24.1841C215.655 24.1841 213.303 21.8561 213.303 18.4961C213.303 15.3521 215.583 12.8801 218.823 12.8801ZM218.775 15.0161C217.359 15.0161 216.231 15.9521 215.943 17.6081H221.223C221.151 15.9041 220.143 15.0161 218.775 15.0161ZM227.872 23.8721V15.4241H224.8V13.1681H233.56V15.4241H230.512V23.8721H227.872ZM239.987 12.8801C243.011 12.8801 244.859 14.9201 244.859 18.1361C244.859 18.5201 244.811 18.9521 244.763 19.3841H237.083C237.419 21.1121 238.763 22.0241 240.491 22.0241C241.715 22.0241 242.579 21.6641 243.323 21.0161L244.427 22.6961C243.203 23.6801 241.907 24.1841 240.251 24.1841C236.819 24.1841 234.467 21.8561 234.467 18.4961C234.467 15.3521 236.747 12.8801 239.987 12.8801ZM239.939 15.0161C238.523 15.0161 237.395 15.9521 237.107 17.6081H242.387C242.315 15.9041 241.307 15.0161 239.939 15.0161ZM252.034 24.1841C249.322 24.1841 246.514 22.2641 246.514 18.5201C246.514 15.0161 249.082 12.8801 252.154 12.8801C253.714 12.8801 255.01 13.3361 256.138 14.3201L254.866 16.0721C254.098 15.4241 253.378 15.1601 252.346 15.1601C250.546 15.1601 249.154 16.4801 249.154 18.5201C249.154 20.6321 250.57 21.8801 252.298 21.8801C253.45 21.8801 254.242 21.5201 255.034 20.7761L256.354 22.5281C255.154 23.6321 253.93 24.1841 252.034 24.1841ZM263.409 16.5761C265.857 16.5761 267.417 17.9681 267.417 20.2241C267.417 22.5281 265.857 23.8721 263.409 23.8721H258.249V13.1681H260.889V16.5761H263.409ZM262.881 21.8561C264.105 21.8561 264.801 21.2801 264.801 20.2241C264.801 19.1441 264.105 18.5921 262.881 18.5921H260.889V21.8561H262.881ZM282.328 18.3761C283.408 18.7361 284.104 19.6001 284.104 20.8961C284.104 22.7921 282.688 23.8721 280.6 23.8721H274.936V13.1681H280.192C282.232 13.1681 283.624 14.2721 283.624 16.0241C283.624 17.2001 283.12 17.9201 282.328 18.3761ZM279.664 15.0641H277.48V17.5601H279.664C280.696 17.5601 281.128 16.9601 281.128 16.2641C281.128 15.6161 280.696 15.0641 279.664 15.0641ZM279.952 21.9761C281.008 21.9761 281.488 21.4481 281.488 20.6801C281.488 19.9121 281.008 19.3601 279.952 19.3601H277.48V21.9761H279.952ZM291.882 23.8721V13.1681H301.434V23.8721H298.818V15.4481H294.498V23.8721H291.882ZM309.578 24.1841C306.218 24.1841 303.842 21.8321 303.842 18.5201C303.842 15.2081 306.218 12.8801 309.578 12.8801C312.938 12.8801 315.338 15.2081 315.338 18.5201C315.338 21.8321 312.938 24.1841 309.578 24.1841ZM309.578 21.8561C311.426 21.8561 312.674 20.4881 312.674 18.5201C312.674 16.5521 311.426 15.1841 309.578 15.1841C307.754 15.1841 306.482 16.5521 306.482 18.5201C306.482 20.4881 307.754 21.8561 309.578 21.8561ZM328.875 13.1201L329.859 23.8721H326.691L326.379 19.6721L326.307 18.6401C326.043 19.0001 325.755 19.3361 325.467 19.6961L323.691 21.8081H323.019L321.315 19.7921L320.427 18.6881C320.403 19.0721 320.379 19.4321 320.355 19.7921L320.043 23.8721H316.875L317.883 13.1201H319.035L322.491 17.0801C322.779 17.3921 323.067 17.7281 323.355 18.0881C323.643 17.7521 323.931 17.4161 324.219 17.1041L327.723 13.1201H328.875ZM337.141 24.1841C333.781 24.1841 331.405 21.8321 331.405 18.5201C331.405 15.2081 333.781 12.8801 337.141 12.8801C340.501 12.8801 342.901 15.2081 342.901 18.5201C342.901 21.8321 340.501 24.1841 337.141 24.1841ZM337.141 21.8561C338.989 21.8561 340.237 20.4881 340.237 18.5201C340.237 16.5521 338.989 15.1841 337.141 15.1841C335.317 15.1841 334.045 16.5521 334.045 18.5201C334.045 20.4881 335.317 21.8561 337.141 21.8561ZM345.296 23.8721V13.1681H352.568V15.4241H347.936V23.8721H345.296ZM358.474 12.9761C361.21 12.9761 362.89 14.3681 362.89 16.9601V23.8721H361.138L360.658 22.2641C359.866 23.3921 358.594 24.0881 356.842 24.0881C354.874 24.0881 353.482 22.9841 353.482 21.0881C353.482 18.6401 355.642 17.2961 358.906 17.2961C359.458 17.2961 359.866 17.3201 360.25 17.3441V16.8641C360.25 15.7601 359.434 15.2081 358.066 15.2081C357.01 15.2081 355.834 15.5441 354.73 16.0721L353.986 14.0801C355.57 13.3601 357.034 12.9761 358.474 12.9761ZM357.61 22.1201C359.146 22.1201 360.274 20.9921 360.322 19.0481C359.89 19.0001 359.554 18.9761 359.074 18.9761C357.178 18.9761 356.074 19.6481 356.074 20.8241C356.074 21.6641 356.65 22.1201 357.61 22.1201ZM375.811 12.8801C379.195 12.8801 381.547 15.2321 381.547 18.5201C381.547 21.8321 379.195 24.1601 375.811 24.1601C372.811 24.1601 370.675 22.3121 370.243 19.5761H368.443V23.8721H365.827V13.1681H368.443V17.3441H370.267C370.747 14.6801 372.859 12.8801 375.811 12.8801ZM375.811 21.8561C377.635 21.8561 378.883 20.4881 378.883 18.5201C378.883 16.5521 377.635 15.2081 375.811 15.2081C374.011 15.2081 372.787 16.5521 372.787 18.5201C372.787 20.4881 374.011 21.8561 375.811 21.8561ZM398.704 21.6161H400.216V26.6081H397.792V23.8721H383.944V13.1681H386.536V21.6161H390.016V13.1681H392.608V21.6161H396.112V13.1681H398.704V21.6161ZM407.05 12.8801C410.074 12.8801 411.922 14.9201 411.922 18.1361C411.922 18.5201 411.874 18.9521 411.826 19.3841H404.146C404.482 21.1121 405.826 22.0241 407.554 22.0241C408.778 22.0241 409.642 21.6641 410.386 21.0161L411.49 22.6961C410.266 23.6801 408.97 24.1841 407.314 24.1841C403.882 24.1841 401.53 21.8561 401.53 18.4961C401.53 15.3521 403.81 12.8801 407.05 12.8801ZM407.002 15.0161C405.586 15.0161 404.458 15.9521 404.17 17.6081H409.45C409.378 15.9041 408.37 15.0161 407.002 15.0161ZM419.121 11.2961C417.585 11.2961 416.313 10.5521 415.617 9.23207L417.033 8.17607C417.537 9.01607 418.353 9.42407 419.121 9.42407C419.889 9.42407 420.681 9.01607 421.185 8.17607L422.625 9.20807C421.929 10.5521 420.633 11.2961 419.121 11.2961ZM422.745 13.1681H423.753V23.8721H421.161V18.9761C421.161 18.5681 421.161 18.1601 421.209 17.7281C420.897 18.1121 420.585 18.4481 420.249 18.7841L415.257 23.8961H414.249V13.1681H416.841V17.9681C416.841 18.4241 416.841 18.8561 416.793 19.2881C417.153 18.8561 417.513 18.4721 417.873 18.0881L422.745 13.1681ZM437.073 24.1841C434.361 24.1841 431.553 22.2641 431.553 18.5201C431.553 15.0161 434.121 12.8801 437.193 12.8801C438.753 12.8801 440.049 13.3361 441.177 14.3201L439.905 16.0721C439.137 15.4241 438.417 15.1601 437.385 15.1601C435.585 15.1601 434.193 16.4801 434.193 18.5201C434.193 20.6321 435.609 21.8801 437.337 21.8801C438.489 21.8801 439.281 21.5201 440.073 20.7761L441.393 22.5281C440.193 23.6321 438.969 24.1841 437.073 24.1841ZM456.637 18.5201C456.637 21.6641 454.333 23.9201 450.805 24.1361V29.2001H448.213V24.1361C444.565 23.9441 442.405 21.6881 442.405 18.5201C442.405 15.3521 444.565 13.0961 448.213 12.9041V7.09607H450.805V12.9041C454.357 13.0961 456.637 15.3761 456.637 18.5201ZM444.973 18.5201C444.973 20.5121 446.197 21.7361 448.285 21.9041V15.1361C446.197 15.3041 444.973 16.5281 444.973 18.5201ZM450.757 21.9041C452.821 21.7361 454.045 20.5121 454.045 18.5201C454.045 16.5281 452.821 15.3041 450.757 15.1361V21.9041ZM463.886 12.8801C466.91 12.8801 468.758 14.9201 468.758 18.1361C468.758 18.5201 468.71 18.9521 468.662 19.3841H460.982C461.318 21.1121 462.662 22.0241 464.39 22.0241C465.614 22.0241 466.478 21.6641 467.222 21.0161L468.326 22.6961C467.102 23.6801 465.806 24.1841 464.15 24.1841C460.718 24.1841 458.366 21.8561 458.366 18.4961C458.366 15.3521 460.646 12.8801 463.886 12.8801ZM463.838 15.0161C462.422 15.0161 461.294 15.9521 461.006 17.6081H466.286C466.214 15.9041 465.206 15.0161 463.838 15.0161ZM477.253 12.9041C480.205 12.9041 482.365 15.2561 482.365 18.4721C482.365 21.8081 480.229 24.1361 477.253 24.1361C475.765 24.1361 474.517 23.5601 473.653 22.6481C473.701 23.3921 473.701 24.2561 473.701 25.1921V29.1521H471.085V13.1681H472.861L473.365 14.8001C474.253 13.6241 475.597 12.9041 477.253 12.9041ZM476.701 21.8561C478.501 21.8561 479.701 20.4881 479.701 18.5441C479.701 16.5521 478.501 15.2081 476.701 15.2081C474.853 15.2081 473.605 16.5281 473.605 18.4961C473.605 20.5121 474.877 21.8561 476.701 21.8561ZM489.667 12.8801C492.691 12.8801 494.539 14.9201 494.539 18.1361C494.539 18.5201 494.491 18.9521 494.443 19.3841H486.763C487.099 21.1121 488.443 22.0241 490.171 22.0241C491.395 22.0241 492.259 21.6641 493.003 21.0161L494.107 22.6961C492.883 23.6801 491.587 24.1841 489.931 24.1841C486.499 24.1841 484.147 21.8561 484.147 18.4961C484.147 15.3521 486.427 12.8801 489.667 12.8801ZM489.619 15.0161C488.203 15.0161 487.075 15.9521 486.787 17.6081H492.067C491.995 15.9041 490.987 15.0161 489.619 15.0161ZM506.145 28.5041C503.865 25.8641 502.329 21.6161 502.329 17.0081C502.329 12.4001 503.865 8.15207 506.145 5.51207L507.729 6.85607C505.833 9.25607 504.705 13.0001 504.705 17.0081C504.705 21.0161 505.833 24.7601 507.729 27.1601L506.145 28.5041ZM525.191 7.43207L527.591 23.8721H524.807L523.511 15.0401C523.439 14.4641 523.367 13.9361 523.319 13.3841C523.031 13.9121 522.695 14.4161 522.359 14.9201L518.639 20.5841H518.063L514.367 14.9201C514.007 14.4161 513.671 13.8881 513.359 13.3361C513.335 13.9601 513.239 14.4881 513.167 15.0641L511.919 23.8721H509.135L511.535 7.43207H512.375L517.295 14.9681C517.655 15.5201 518.015 16.0961 518.351 16.6721C518.687 16.0961 519.047 15.5201 519.407 14.9681L524.351 7.43207H525.191ZM537.088 7.45607L544.768 23.8001V23.8721H541.816L540.472 20.9201H532.84L531.496 23.8721H528.52V23.8241L536.224 7.45607H537.088ZM536.656 12.0161C536.272 13.0721 535.936 13.9121 535.552 14.8001L533.776 18.6881H539.536L537.76 14.8001C537.376 13.9361 537.04 13.0721 536.656 12.0161ZM552.341 15.6401L559.277 23.7761V23.8721H555.941L549.701 16.5761V23.8721H546.869V7.55207H549.701V14.8721L555.557 7.55207H558.773V7.62407L552.341 15.6401ZM559.603 19.5521V17.2961H566.347V19.5521H559.603ZM574.066 24.1841C571.354 24.1841 568.546 22.2641 568.546 18.5201C568.546 15.0161 571.114 12.8801 574.186 12.8801C575.746 12.8801 577.042 13.3361 578.17 14.3201L576.898 16.0721C576.13 15.4241 575.41 15.1601 574.378 15.1601C572.578 15.1601 571.186 16.4801 571.186 18.5201C571.186 20.6321 572.602 21.8801 574.33 21.8801C575.482 21.8801 576.274 21.5201 577.066 20.7761L578.386 22.5281C577.186 23.6321 575.962 24.1841 574.066 24.1841ZM580.28 23.8721V13.1681H589.832V23.8721H587.216V15.4481H582.896V23.8721H580.28ZM597.761 12.8801C600.785 12.8801 602.633 14.9201 602.633 18.1361C602.633 18.5201 602.585 18.9521 602.537 19.3841H594.857C595.193 21.1121 596.537 22.0241 598.265 22.0241C599.489 22.0241 600.353 21.6641 601.097 21.0161L602.201 22.6961C600.977 23.6801 599.681 24.1841 598.025 24.1841C594.593 24.1841 592.241 21.8561 592.241 18.4961C592.241 15.3521 594.521 12.8801 597.761 12.8801ZM597.713 15.0161C596.297 15.0161 595.169 15.9521 594.881 17.6081H600.161C600.089 15.9041 599.081 15.0161 597.713 15.0161ZM614.464 21.6161H615.976V26.6081H613.576V23.8721H604.96V13.1681H607.576V21.6161H611.848V13.1681H614.464V21.6161ZM626.464 13.1681H627.472V23.8721H624.88V18.9761C624.88 18.5681 624.88 18.1601 624.928 17.7281C624.616 18.1121 624.304 18.4481 623.968 18.7841L618.976 23.8961H617.968V13.1681H620.56V17.9681C620.56 18.4241 620.56 18.8561 620.512 19.2881C620.872 18.8561 621.232 18.4721 621.592 18.0881L626.464 13.1681ZM634.825 12.9761C637.561 12.9761 639.241 14.3681 639.241 16.9601V23.8721H637.489L637.009 22.2641C636.217 23.3921 634.945 24.0881 633.193 24.0881C631.225 24.0881 629.833 22.9841 629.833 21.0881C629.833 18.6401 631.993 17.2961 635.257 17.2961C635.809 17.2961 636.217 17.3201 636.601 17.3441V16.8641C636.601 15.7601 635.785 15.2081 634.417 15.2081C633.361 15.2081 632.185 15.5441 631.081 16.0721L630.337 14.0801C631.921 13.3601 633.385 12.9761 634.825 12.9761ZM633.961 22.1201C635.497 22.1201 636.625 20.9921 636.673 19.0481C636.241 19.0001 635.905 18.9761 635.425 18.9761C633.529 18.9761 632.425 19.6481 632.425 20.8241C632.425 21.6641 633.001 22.1201 633.961 22.1201ZM641.169 24.0401L640.881 21.7601C642.705 21.5681 643.233 20.5601 643.425 18.4481L643.881 13.1681H651.657V23.8721H649.041V15.4241H646.185L645.945 18.6161C645.633 22.3121 644.361 23.8241 641.169 24.0401ZM663.214 13.1681H664.222V23.8721H661.63V18.9761C661.63 18.5681 661.63 18.1601 661.678 17.7281C661.366 18.1121 661.054 18.4481 660.718 18.7841L655.726 23.8961H654.718V13.1681H657.31V17.9681C657.31 18.4241 657.31 18.8561 657.262 19.2881C657.622 18.8561 657.982 18.4721 658.342 18.0881L663.214 13.1681ZM672.151 24.1841C669.439 24.1841 666.631 22.2641 666.631 18.5201C666.631 15.0161 669.199 12.8801 672.271 12.8801C673.831 12.8801 675.127 13.3361 676.255 14.3201L674.983 16.0721C674.215 15.4241 673.495 15.1601 672.463 15.1601C670.663 15.1601 669.271 16.4801 669.271 18.5201C669.271 20.6321 670.687 21.8801 672.415 21.8801C673.567 21.8801 674.359 21.5201 675.151 20.7761L676.471 22.5281C675.271 23.6321 674.047 24.1841 672.151 24.1841ZM680.38 23.8721V15.4241H677.308V13.1681H686.068V15.4241H683.02V23.8721H680.38ZM688.249 20.8241C689.233 20.8241 689.977 21.4961 689.977 22.8881C689.977 24.6641 689.065 26.2481 687.505 27.4001L686.833 26.7041C687.673 25.9361 688.249 25.1681 688.441 24.1601H688.249C687.361 24.1601 686.569 23.5841 686.569 22.5041C686.569 21.3521 687.433 20.8241 688.249 20.8241ZM698.428 23.8721V13.1681H707.98V23.8721H705.364V15.4481H701.044V23.8721H698.428ZM715.909 24.1841C713.197 24.1841 710.389 22.2641 710.389 18.5201C710.389 15.0161 712.957 12.8801 716.029 12.8801C717.589 12.8801 718.885 13.3361 720.013 14.3201L718.741 16.0721C717.973 15.4241 717.253 15.1601 716.221 15.1601C714.421 15.1601 713.029 16.4801 713.029 18.5201C713.029 20.6321 714.445 21.8801 716.173 21.8801C717.325 21.8801 718.117 21.5201 718.909 20.7761L720.229 22.5281C719.029 23.6321 717.805 24.1841 715.909 24.1841ZM730.62 13.1681H731.628V23.8721H729.036V18.9761C729.036 18.5681 729.036 18.1601 729.084 17.7281C728.772 18.1121 728.46 18.4481 728.124 18.7841L723.132 23.8961H722.124V13.1681H724.716V17.9681C724.716 18.4241 724.716 18.8561 724.668 19.2881C725.028 18.8561 725.388 18.4721 725.748 18.0881L730.62 13.1681ZM733.582 23.8721V23.8241L737.182 18.3041L733.894 13.2401V13.1681H736.822L738.166 15.3761C738.406 15.7601 738.598 16.1441 738.838 16.6481L739.558 15.3521L740.926 13.1681H743.782V13.2401L740.518 18.3041L744.118 23.8241V23.8721H741.166L739.606 21.3761C739.342 20.9441 739.126 20.5121 738.838 19.9361C738.574 20.5121 738.334 20.9441 738.07 21.3761L736.486 23.8721H733.582ZM750.532 24.1841C747.172 24.1841 744.796 21.8321 744.796 18.5201C744.796 15.2081 747.172 12.8801 750.532 12.8801C753.892 12.8801 756.292 15.2081 756.292 18.5201C756.292 21.8321 753.892 24.1841 750.532 24.1841ZM750.532 21.8561C752.38 21.8561 753.628 20.4881 753.628 18.5201C753.628 16.5521 752.38 15.1841 750.532 15.1841C748.708 15.1841 747.436 16.5521 747.436 18.5201C747.436 20.4881 748.708 21.8561 750.532 21.8561ZM757.325 24.0401L757.037 21.7601C758.861 21.5681 759.389 20.5601 759.581 18.4481L760.037 13.1681H767.813V23.8721H765.197V15.4241H762.341L762.101 18.6161C761.789 22.3121 760.517 23.8241 757.325 24.0401ZM775.938 24.1841C772.578 24.1841 770.202 21.8321 770.202 18.5201C770.202 15.2081 772.578 12.8801 775.938 12.8801C779.298 12.8801 781.698 15.2081 781.698 18.5201C781.698 21.8321 779.298 24.1841 775.938 24.1841ZM775.938 21.8561C777.786 21.8561 779.034 20.4881 779.034 18.5201C779.034 16.5521 777.786 15.1841 775.938 15.1841C774.114 15.1841 772.842 16.5521 772.842 18.5201C772.842 20.4881 774.114 21.8561 775.938 21.8561ZM784.093 23.8721V13.1681H791.365V15.4241H786.733V23.8721H784.093ZM793.319 20.8241C794.303 20.8241 795.047 21.4961 795.047 22.8881C795.047 24.6641 794.135 26.2481 792.575 27.4001L791.903 26.7041C792.743 25.9361 793.319 25.1681 793.511 24.1601H793.319C792.431 24.1601 791.639 23.5841 791.639 22.5041C791.639 21.3521 792.503 20.8241 793.319 20.8241ZM805.443 23.8721V15.4241H802.371V13.1681H811.131V15.4241H808.083V23.8721H805.443ZM817.558 12.8801C820.582 12.8801 822.43 14.9201 822.43 18.1361C822.43 18.5201 822.382 18.9521 822.334 19.3841H814.654C814.99 21.1121 816.334 22.0241 818.062 22.0241C819.286 22.0241 820.15 21.6641 820.894 21.0161L821.998 22.6961C820.774 23.6801 819.478 24.1841 817.822 24.1841C814.39 24.1841 812.038 21.8561 812.038 18.4961C812.038 15.3521 814.318 12.8801 817.558 12.8801ZM817.51 15.0161C816.094 15.0161 814.966 15.9521 814.678 17.6081H819.958C819.886 15.9041 818.878 15.0161 817.51 15.0161ZM826.607 23.8721V15.4241H823.535V13.1681H832.295V15.4241H829.247V23.8721H826.607ZM838.263 12.9761C840.999 12.9761 842.679 14.3681 842.679 16.9601V23.8721H840.927L840.447 22.2641C839.655 23.3921 838.383 24.0881 836.631 24.0881C834.663 24.0881 833.271 22.9841 833.271 21.0881C833.271 18.6401 835.431 17.2961 838.695 17.2961C839.247 17.2961 839.655 17.3201 840.039 17.3441V16.8641C840.039 15.7601 839.223 15.2081 837.855 15.2081C836.799 15.2081 835.623 15.5441 834.519 16.0721L833.775 14.0801C835.359 13.3601 836.823 12.9761 838.263 12.9761ZM837.399 22.1201C838.935 22.1201 840.063 20.9921 840.111 19.0481C839.679 19.0001 839.343 18.9761 838.863 18.9761C836.967 18.9761 835.863 19.6481 835.863 20.8241C835.863 21.6641 836.439 22.1201 837.399 22.1201ZM845.376 19.5521V17.2961H852.12V19.5521H845.376ZM852.761 23.8721V23.8241L856.361 18.3041L853.073 13.2401V13.1681H856.001L857.345 15.3761C857.585 15.7601 857.777 16.1441 858.017 16.6481L858.737 15.3521L860.105 13.1681H862.961V13.2401L859.697 18.3041L863.297 23.8241V23.8721H860.345L858.785 21.3761C858.521 20.9441 858.305 20.5121 858.017 19.9361C857.753 20.5121 857.513 20.9441 857.249 21.3761L855.665 23.8721H852.761ZM873.729 13.1681H874.737V23.8721H872.145V18.9761C872.145 18.5681 872.145 18.1601 872.193 17.7281C871.881 18.1121 871.569 18.4481 871.233 18.7841L866.241 23.8961H865.233V13.1681H867.825V17.9681C867.825 18.4241 867.825 18.8561 867.777 19.2881C868.137 18.8561 868.497 18.4721 868.857 18.0881L873.729 13.1681ZM876.739 24.0401L876.451 21.7601C878.275 21.5681 878.803 20.5601 878.995 18.4481L879.451 13.1681H887.227V23.8721H884.611V15.4241H881.755L881.515 18.6161C881.203 22.3121 879.931 23.8241 876.739 24.0401ZM895.136 12.8801C898.16 12.8801 900.008 14.9201 900.008 18.1361C900.008 18.5201 899.96 18.9521 899.912 19.3841H892.232C892.568 21.1121 893.912 22.0241 895.64 22.0241C896.864 22.0241 897.728 21.6641 898.472 21.0161L899.576 22.6961C898.352 23.6801 897.056 24.1841 895.4 24.1841C891.968 24.1841 889.616 21.8561 889.616 18.4961C889.616 15.3521 891.896 12.8801 895.136 12.8801ZM895.088 15.0161C893.672 15.0161 892.544 15.9521 892.256 17.6081H897.536C897.464 15.9041 896.456 15.0161 895.088 15.0161ZM908.503 12.9041C911.455 12.9041 913.615 15.2561 913.615 18.4721C913.615 21.8081 911.479 24.1361 908.503 24.1361C907.015 24.1361 905.767 23.5601 904.903 22.6481C904.951 23.3921 904.951 24.2561 904.951 25.1921V29.1521H902.335V13.1681H904.111L904.615 14.8001C905.503 13.6241 906.847 12.9041 908.503 12.9041ZM907.951 21.8561C909.751 21.8561 910.951 20.4881 910.951 18.5441C910.951 16.5521 909.751 15.2081 907.951 15.2081C906.103 15.2081 904.855 16.5281 904.855 18.4961C904.855 20.5121 906.127 21.8561 907.951 21.8561ZM917.374 20.8241C918.358 20.8241 919.102 21.4961 919.102 22.8881C919.102 24.6641 918.19 26.2481 916.63 27.4001L915.958 26.7041C916.798 25.9361 917.374 25.1681 917.566 24.1601H917.374C916.486 24.1601 915.694 23.5841 915.694 22.5041C915.694 21.3521 916.558 20.8241 917.374 20.8241ZM932.401 24.1841C929.689 24.1841 926.881 22.2641 926.881 18.5201C926.881 15.0161 929.449 12.8801 932.521 12.8801C934.081 12.8801 935.377 13.3361 936.505 14.3201L935.233 16.0721C934.465 15.4241 933.745 15.1601 932.713 15.1601C930.913 15.1601 929.521 16.4801 929.521 18.5201C929.521 20.6321 930.937 21.8801 932.665 21.8801C933.817 21.8801 934.609 21.5201 935.401 20.7761L936.721 22.5281C935.521 23.6321 934.297 24.1841 932.401 24.1841ZM947.112 13.1681H948.12V23.8721H945.528V18.9761C945.528 18.5681 945.528 18.1601 945.576 17.7281C945.264 18.1121 944.952 18.4481 944.616 18.7841L939.624 23.8961H938.616V13.1681H941.208V17.9681C941.208 18.4241 941.208 18.8561 941.16 19.2881C941.52 18.8561 941.88 18.4721 942.24 18.0881L947.112 13.1681ZM956.05 24.1841C953.338 24.1841 950.53 22.2641 950.53 18.5201C950.53 15.0161 953.098 12.8801 956.17 12.8801C957.73 12.8801 959.026 13.3361 960.154 14.3201L958.882 16.0721C958.114 15.4241 957.394 15.1601 956.362 15.1601C954.562 15.1601 953.17 16.4801 953.17 18.5201C953.17 20.6321 954.586 21.8801 956.314 21.8801C957.466 21.8801 958.258 21.5201 959.05 20.7761L960.37 22.5281C959.17 23.6321 957.946 24.1841 956.05 24.1841ZM964.279 23.8721V15.4241H961.207V13.1681H969.967V15.4241H966.919V23.8721H964.279ZM976.394 12.8801C979.418 12.8801 981.266 14.9201 981.266 18.1361C981.266 18.5201 981.218 18.9521 981.17 19.3841H973.49C973.826 21.1121 975.17 22.0241 976.898 22.0241C978.122 22.0241 978.986 21.6641 979.73 21.0161L980.834 22.6961C979.61 23.6801 978.314 24.1841 976.658 24.1841C973.226 24.1841 970.874 21.8561 970.874 18.4961C970.874 15.3521 973.154 12.8801 976.394 12.8801ZM976.346 15.0161C974.93 15.0161 973.802 15.9521 973.514 17.6081H978.794C978.722 15.9041 977.714 15.0161 976.346 15.0161ZM994.969 13.1201L995.953 23.8721H992.785L992.473 19.6721L992.401 18.6401C992.137 19.0001 991.849 19.3361 991.561 19.6961L989.785 21.8081H989.113L987.409 19.7921L986.521 18.6881C986.497 19.0721 986.473 19.4321 986.449 19.7921L986.137 23.8721H982.969L983.977 13.1201H985.129L988.585 17.0801C988.873 17.3921 989.161 17.7281 989.449 18.0881C989.737 17.7521 990.025 17.4161 990.313 17.1041L993.817 13.1201H994.969ZM1005.34 13.1681H1007.98V23.8721H1005.34V19.6001H1001.02V23.8721H998.405V13.1681H1001.02V17.3441H1005.34V13.1681ZM1016.22 16.5761C1018.67 16.5761 1020.23 17.9681 1020.23 20.2241C1020.23 22.5281 1018.67 23.8721 1016.22 23.8721H1011.06V13.1681H1013.7V16.5761H1016.22ZM1022.03 13.1681H1024.65V23.8721H1022.03V13.1681ZM1015.69 21.8561C1016.92 21.8561 1017.61 21.2801 1017.61 20.2241C1017.61 19.1441 1016.92 18.5921 1015.69 18.5921H1013.7V21.8561H1015.69ZM1032.6 11.2961C1031.06 11.2961 1029.79 10.5521 1029.09 9.23207L1030.51 8.17607C1031.01 9.01607 1031.83 9.42407 1032.6 9.42407C1033.37 9.42407 1034.16 9.01607 1034.66 8.17607L1036.1 9.20807C1035.41 10.5521 1034.11 11.2961 1032.6 11.2961ZM1036.22 13.1681H1037.23V23.8721H1034.64V18.9761C1034.64 18.5681 1034.64 18.1601 1034.69 17.7281C1034.37 18.1121 1034.06 18.4481 1033.73 18.7841L1028.73 23.8961H1027.73V13.1681H1030.32V17.9681C1030.32 18.4241 1030.32 18.8561 1030.27 19.2881C1030.63 18.8561 1030.99 18.4721 1031.35 18.0881L1036.22 13.1681ZM100.448 36.9041C103.4 36.9041 105.56 39.2561 105.56 42.4721C105.56 45.8081 103.424 48.1361 100.448 48.1361C98.96 48.1361 97.712 47.5601 96.848 46.6481C96.896 47.3921 96.896 48.2561 96.896 49.1921V53.1521H94.28V37.1681H96.056L96.56 38.8001C97.448 37.6241 98.792 36.9041 100.448 36.9041ZM99.896 45.8561C101.696 45.8561 102.896 44.4881 102.896 42.5441C102.896 40.5521 101.696 39.2081 99.896 39.2081C98.048 39.2081 96.8 40.5281 96.8 42.4961C96.8 44.5121 98.072 45.8561 99.896 45.8561ZM112.075 36.9761C114.811 36.9761 116.491 38.3681 116.491 40.9601V47.8721H114.739L114.259 46.2641C113.467 47.3921 112.195 48.0881 110.443 48.0881C108.475 48.0881 107.083 46.9841 107.083 45.0881C107.083 42.6401 109.243 41.2961 112.507 41.2961C113.059 41.2961 113.467 41.3201 113.851 41.3441V40.8641C113.851 39.7601 113.035 39.2081 111.667 39.2081C110.611 39.2081 109.435 39.5441 108.331 40.0721L107.587 38.0801C109.171 37.3601 110.635 36.9761 112.075 36.9761ZM111.211 46.1201C112.747 46.1201 113.875 44.9921 113.923 43.0481C113.491 43.0001 113.155 42.9761 112.675 42.9761C110.779 42.9761 109.675 43.6481 109.675 44.8241C109.675 45.6641 110.251 46.1201 111.211 46.1201ZM124.276 48.1841C121.564 48.1841 118.756 46.2641 118.756 42.5201C118.756 39.0161 121.324 36.8801 124.396 36.8801C125.956 36.8801 127.252 37.3361 128.38 38.3201L127.108 40.0721C126.34 39.4241 125.62 39.1601 124.588 39.1601C122.788 39.1601 121.396 40.4801 121.396 42.5201C121.396 44.6321 122.812 45.8801 124.54 45.8801C125.692 45.8801 126.484 45.5201 127.276 44.7761L128.596 46.5281C127.396 47.6321 126.172 48.1841 124.276 48.1841ZM135.128 48.1841C132.416 48.1841 129.608 46.2641 129.608 42.5201C129.608 39.0161 132.176 36.8801 135.248 36.8801C136.808 36.8801 138.104 37.3361 139.232 38.3201L137.96 40.0721C137.192 39.4241 136.472 39.1601 135.44 39.1601C133.64 39.1601 132.248 40.4801 132.248 42.5201C132.248 44.6321 133.664 45.8801 135.392 45.8801C136.544 45.8801 137.336 45.5201 138.128 44.7761L139.448 46.5281C138.248 47.6321 137.024 48.1841 135.128 48.1841ZM143.357 47.8721V39.4241H140.285V37.1681H149.045V39.4241H145.997V47.8721H143.357ZM155.013 36.9761C157.749 36.9761 159.429 38.3681 159.429 40.9601V47.8721H157.677L157.197 46.2641C156.405 47.3921 155.133 48.0881 153.381 48.0881C151.413 48.0881 150.021 46.9841 150.021 45.0881C150.021 42.6401 152.181 41.2961 155.445 41.2961C155.997 41.2961 156.405 41.3201 156.789 41.3441V40.8641C156.789 39.7601 155.973 39.2081 154.605 39.2081C153.549 39.2081 152.373 39.5441 151.269 40.0721L150.525 38.0801C152.109 37.3601 153.573 36.9761 155.013 36.9761ZM154.149 46.1201C155.685 46.1201 156.813 44.9921 156.861 43.0481C156.429 43.0001 156.093 42.9761 155.613 42.9761C153.717 42.9761 152.613 43.6481 152.613 44.8241C152.613 45.6641 153.189 46.1201 154.149 46.1201ZM169.302 37.1681H171.942V47.8721H169.302V43.6001H164.982V47.8721H162.366V37.1681H164.982V41.3441H169.302V37.1681ZM180.086 48.1841C176.726 48.1841 174.35 45.8321 174.35 42.5201C174.35 39.2081 176.726 36.8801 180.086 36.8801C183.446 36.8801 185.846 39.2081 185.846 42.5201C185.846 45.8321 183.446 48.1841 180.086 48.1841ZM180.086 45.8561C181.934 45.8561 183.182 44.4881 183.182 42.5201C183.182 40.5521 181.934 39.1841 180.086 39.1841C178.262 39.1841 176.99 40.5521 176.99 42.5201C176.99 44.4881 178.262 45.8561 180.086 45.8561ZM195.633 42.3761C196.713 42.7361 197.409 43.6001 197.409 44.8961C197.409 46.7921 195.993 47.8721 193.905 47.8721H188.241V37.1681H193.497C195.537 37.1681 196.929 38.2721 196.929 40.0241C196.929 41.2001 196.425 41.9201 195.633 42.3761ZM192.969 39.0641H190.785V41.5601H192.969C194.001 41.5601 194.433 40.9601 194.433 40.2641C194.433 39.6161 194.001 39.0641 192.969 39.0641ZM193.257 45.9761C194.313 45.9761 194.793 45.4481 194.793 44.6801C194.793 43.9121 194.313 43.3601 193.257 43.3601H190.785V45.9761H193.257ZM214.556 45.6161H216.068V50.6081H213.644V47.8721H199.796V37.1681H202.388V45.6161H205.868V37.1681H208.46V45.6161H211.964V37.1681H214.556V45.6161ZM226.549 37.1681H227.557V47.8721H224.965V42.9761C224.965 42.5681 224.965 42.1601 225.013 41.7281C224.701 42.1121 224.389 42.4481 224.053 42.7841L219.061 47.8961H218.053V37.1681H220.645V41.9681C220.645 42.4241 220.645 42.8561 220.597 43.2881C220.957 42.8561 221.317 42.4721 221.677 42.0881L226.549 37.1681ZM235.511 42.3521L240.119 47.7521V47.8721H237.119L233.255 43.3121V47.8721H230.639V37.1681H233.255V41.4161L236.783 37.1681H239.759V37.2641L235.511 42.3521ZM243.452 44.8241C244.436 44.8241 245.18 45.4961 245.18 46.8881C245.18 48.6641 244.268 50.2481 242.708 51.4001L242.036 50.7041C242.876 49.9361 243.452 49.1681 243.644 48.1601H243.452C242.564 48.1601 241.772 47.5841 241.772 46.5041C241.772 45.3521 242.636 44.8241 243.452 44.8241ZM258.504 42.3521L263.112 47.7521V47.8721H260.112L256.248 43.3121V47.8721H253.632V37.1681H256.248V41.4161L259.776 37.1681H262.752V37.2641L258.504 42.3521ZM269.125 48.1841C265.765 48.1841 263.389 45.8321 263.389 42.5201C263.389 39.2081 265.765 36.8801 269.125 36.8801C272.485 36.8801 274.885 39.2081 274.885 42.5201C274.885 45.8321 272.485 48.1841 269.125 48.1841ZM269.125 45.8561C270.973 45.8561 272.221 44.4881 272.221 42.5201C272.221 40.5521 270.973 39.1841 269.125 39.1841C267.301 39.1841 266.029 40.5521 266.029 42.5201C266.029 44.4881 267.301 45.8561 269.125 45.8561ZM283.754 37.1681H286.514V37.2401L282.266 48.1601C281.066 51.2561 279.842 52.8881 276.482 53.2961L276.074 51.1361C278.234 50.8481 279.05 49.7681 279.818 47.9681L279.866 47.8481L275.21 37.2401V37.1681H278.042L279.914 41.7761C280.298 42.6881 280.658 43.6241 281.042 44.8241C281.378 43.6241 281.714 42.6881 282.05 41.7761L283.754 37.1681ZM294.221 37.1681H296.837V47.8721H294.221V43.9121C293.429 44.3441 292.517 44.6081 291.533 44.6081C289.133 44.6081 287.741 43.4321 287.741 40.8641V37.1681H290.357V40.6241C290.357 41.8721 290.981 42.3281 292.253 42.3281C293.045 42.3281 293.645 42.2081 294.221 41.8721V37.1681ZM301.553 44.8241C302.537 44.8241 303.281 45.4961 303.281 46.8881C303.281 48.6641 302.369 50.2481 300.809 51.4001L300.137 50.7041C300.977 49.9361 301.553 49.1681 301.745 48.1601H301.553C300.665 48.1601 299.873 47.5841 299.873 46.5041C299.873 45.3521 300.737 44.8241 301.553 44.8241ZM313.677 47.8721V39.4241H310.605V37.1681H319.365V39.4241H316.317V47.8721H313.677ZM325.333 36.9761C328.069 36.9761 329.749 38.3681 329.749 40.9601V47.8721H327.997L327.517 46.2641C326.725 47.3921 325.453 48.0881 323.701 48.0881C321.733 48.0881 320.341 46.9841 320.341 45.0881C320.341 42.6401 322.501 41.2961 325.765 41.2961C326.317 41.2961 326.725 41.3201 327.109 41.3441V40.8641C327.109 39.7601 326.293 39.2081 324.925 39.2081C323.869 39.2081 322.693 39.5441 321.589 40.0721L320.845 38.0801C322.429 37.3601 323.893 36.9761 325.333 36.9761ZM324.469 46.1201C326.005 46.1201 327.133 44.9921 327.181 43.0481C326.749 43.0001 326.413 42.9761 325.933 42.9761C324.037 42.9761 322.933 43.6481 322.933 44.8241C322.933 45.6641 323.509 46.1201 324.469 46.1201ZM338.854 36.9041C341.806 36.9041 343.966 39.2561 343.966 42.4721C343.966 45.8081 341.83 48.1361 338.854 48.1361C337.366 48.1361 336.118 47.5601 335.254 46.6481C335.302 47.3921 335.302 48.2561 335.302 49.1921V53.1521H332.686V37.1681H334.462L334.966 38.8001C335.854 37.6241 337.198 36.9041 338.854 36.9041ZM338.302 45.8561C340.102 45.8561 341.302 44.4881 341.302 42.5441C341.302 40.5521 340.102 39.2081 338.302 39.2081C336.454 39.2081 335.206 40.5281 335.206 42.4961C335.206 44.5121 336.478 45.8561 338.302 45.8561ZM351.485 48.1841C348.125 48.1841 345.749 45.8321 345.749 42.5201C345.749 39.2081 348.125 36.8801 351.485 36.8801C354.845 36.8801 357.245 39.2081 357.245 42.5201C357.245 45.8321 354.845 48.1841 351.485 48.1841ZM351.485 45.8561C353.333 45.8561 354.581 44.4881 354.581 42.5201C354.581 40.5521 353.333 39.1841 351.485 39.1841C349.661 39.1841 348.389 40.5521 348.389 42.5201C348.389 44.4881 349.661 45.8561 351.485 45.8561ZM358.278 48.0401L357.99 45.7601C359.814 45.5681 360.342 44.5601 360.534 42.4481L360.99 37.1681H368.766V47.8721H366.15V39.4241H363.294L363.054 42.6161C362.742 46.3121 361.47 47.8241 358.278 48.0401ZM376.891 48.1841C373.531 48.1841 371.155 45.8321 371.155 42.5201C371.155 39.2081 373.531 36.8801 376.891 36.8801C380.251 36.8801 382.651 39.2081 382.651 42.5201C382.651 45.8321 380.251 48.1841 376.891 48.1841ZM376.891 45.8561C378.739 45.8561 379.987 44.4881 379.987 42.5201C379.987 40.5521 378.739 39.1841 376.891 39.1841C375.067 39.1841 373.795 40.5521 373.795 42.5201C373.795 44.4881 375.067 45.8561 376.891 45.8561ZM385.046 47.8721V37.1681H392.318V39.4241H387.686V47.8721H385.046ZM407.862 37.1681H408.87V47.8721H406.278V42.9761C406.278 42.5681 406.278 42.1601 406.326 41.7281C406.014 42.1121 405.702 42.4481 405.366 42.7841L400.374 47.8961H399.366V37.1681H401.958V41.9681C401.958 42.4241 401.958 42.8561 401.91 43.2881C402.27 42.8561 402.63 42.4721 402.99 42.0881L407.862 37.1681ZM419.287 47.8721V39.4241H416.215V37.1681H424.975V39.4241H421.927V47.8721H419.287ZM427.179 48.1601C426.339 48.1601 425.475 47.6321 425.475 46.5041C425.475 45.3521 426.339 44.8241 427.179 44.8241C428.019 44.8241 428.883 45.3521 428.883 46.5041C428.883 47.6321 428.019 48.1601 427.179 48.1601ZM446.743 45.6641H448.231V50.6081H445.831V47.8721H438.535V50.6081H436.135V45.6641H437.479C438.079 44.7281 438.295 43.7441 438.415 42.3761L438.895 37.1681H446.743V45.6641ZM441.199 39.3521L440.863 42.8081C440.743 44.1041 440.575 44.8961 440.167 45.7121H444.223V39.3521H441.199ZM452.257 48.1601C451.417 48.1601 450.553 47.6321 450.553 46.5041C450.553 45.3521 451.417 44.8241 452.257 44.8241C453.097 44.8241 453.961 45.3521 453.961 46.5041C453.961 47.6321 453.097 48.1601 452.257 48.1601ZM457.671 29.5121C459.951 32.1521 461.511 36.4001 461.511 41.0081C461.511 45.6161 459.951 49.8641 457.671 52.5041L456.111 51.1601C457.983 48.7601 459.111 45.0161 459.111 41.0081C459.111 37.0001 457.983 33.2561 456.111 30.8561L457.671 29.5121ZM478.526 37.1681H479.534V47.8721H476.942V42.9761C476.942 42.5681 476.942 42.1601 476.99 41.7281C476.678 42.1121 476.366 42.4481 476.03 42.7841L471.038 47.8961H470.03V37.1681H472.622V41.9681C472.622 42.4241 472.622 42.8561 472.574 43.2881C472.934 42.8561 473.294 42.4721 473.654 42.0881L478.526 37.1681ZM486.879 47.8721V47.8241L490.479 42.3041L487.191 37.2401V37.1681H490.119L491.463 39.3761C491.703 39.7601 491.895 40.1441 492.135 40.6481L492.855 39.3521L494.223 37.1681H497.079V37.2401L493.815 42.3041L497.415 47.8241V47.8721H494.463L492.903 45.3761C492.639 44.9441 492.423 44.5121 492.135 43.9361C491.871 44.5121 491.631 44.9441 491.367 45.3761L489.783 47.8721H486.879ZM503.828 48.1841C500.468 48.1841 498.092 45.8321 498.092 42.5201C498.092 39.2081 500.468 36.8801 503.828 36.8801C507.188 36.8801 509.588 39.2081 509.588 42.5201C509.588 45.8321 507.188 48.1841 503.828 48.1841ZM503.828 45.8561C505.676 45.8561 506.924 44.4881 506.924 42.5201C506.924 40.5521 505.676 39.1841 503.828 39.1841C502.004 39.1841 500.732 40.5521 500.732 42.5201C500.732 44.4881 502.004 45.8561 503.828 45.8561ZM513.552 47.8721V39.4241H510.48V37.1681H519.24V39.4241H516.192V47.8721H513.552ZM529.69 37.1681H530.698V47.8721H528.106V42.9761C528.106 42.5681 528.106 42.1601 528.154 41.7281C527.842 42.1121 527.53 42.4481 527.194 42.7841L522.202 47.8961H521.194V37.1681H523.786V41.9681C523.786 42.4241 523.786 42.8561 523.738 43.2881C524.098 42.8561 524.458 42.4721 524.818 42.0881L529.69 37.1681ZM535.724 47.8721V39.4241H532.652V37.1681H541.412V39.4241H538.364V47.8721H535.724ZM547.839 36.8801C550.863 36.8801 552.711 38.9201 552.711 42.1361C552.711 42.5201 552.663 42.9521 552.615 43.3841H544.935C545.271 45.1121 546.615 46.0241 548.343 46.0241C549.567 46.0241 550.431 45.6641 551.175 45.0161L552.279 46.6961C551.055 47.6801 549.759 48.1841 548.103 48.1841C544.671 48.1841 542.319 45.8561 542.319 42.4961C542.319 39.3521 544.599 36.8801 547.839 36.8801ZM547.791 39.0161C546.375 39.0161 545.247 39.9521 544.959 41.6081H550.239C550.167 39.9041 549.159 39.0161 547.791 39.0161ZM560.428 47.8721V37.1681H569.98V47.8721H567.364V39.4481H563.044V47.8721H560.428ZM578.125 48.1841C574.765 48.1841 572.389 45.8321 572.389 42.5201C572.389 39.2081 574.765 36.8801 578.125 36.8801C581.485 36.8801 583.885 39.2081 583.885 42.5201C583.885 45.8321 581.485 48.1841 578.125 48.1841ZM578.125 45.8561C579.973 45.8561 581.221 44.4881 581.221 42.5201C581.221 40.5521 579.973 39.1841 578.125 39.1841C576.301 39.1841 575.029 40.5521 575.029 42.5201C575.029 44.4881 576.301 45.8561 578.125 45.8561ZM593.672 42.3761C594.752 42.7361 595.448 43.6001 595.448 44.8961C595.448 46.7921 594.032 47.8721 591.944 47.8721H586.28V37.1681H591.536C593.576 37.1681 594.968 38.2721 594.968 40.0241C594.968 41.2001 594.464 41.9201 593.672 42.3761ZM591.008 39.0641H588.824V41.5601H591.008C592.04 41.5601 592.472 40.9601 592.472 40.2641C592.472 39.6161 592.04 39.0641 591.008 39.0641ZM591.296 45.9761C592.352 45.9761 592.832 45.4481 592.832 44.6801C592.832 43.9121 592.352 43.3601 591.296 43.3601H588.824V45.9761H591.296ZM602.995 40.5761C605.443 40.5761 607.003 41.9681 607.003 44.2241C607.003 46.5281 605.443 47.8721 602.995 47.8721H597.835V37.1681H600.475V40.5761H602.995ZM608.803 37.1681H611.419V47.8721H608.803V37.1681ZM602.467 45.8561C603.691 45.8561 604.387 45.2801 604.387 44.2241C604.387 43.1441 603.691 42.5921 602.467 42.5921H600.475V45.8561H602.467ZM619.347 48.1841C616.635 48.1841 613.827 46.2641 613.827 42.5201C613.827 39.0161 616.395 36.8801 619.467 36.8801C621.027 36.8801 622.323 37.3361 623.451 38.3201L622.179 40.0721C621.411 39.4241 620.691 39.1601 619.659 39.1601C617.859 39.1601 616.467 40.4801 616.467 42.5201C616.467 44.6321 617.883 45.8801 619.611 45.8801C620.763 45.8801 621.555 45.5201 622.347 44.7761L623.667 46.5281C622.467 47.6321 621.243 48.1841 619.347 48.1841ZM634.057 37.1681H635.065V47.8721H632.473V42.9761C632.473 42.5681 632.473 42.1601 632.521 41.7281C632.209 42.1121 631.897 42.4481 631.561 42.7841L626.569 47.8961H625.561V37.1681H628.153V41.9681C628.153 42.4241 628.153 42.8561 628.105 43.2881C628.465 42.8561 628.825 42.4721 629.185 42.0881L634.057 37.1681ZM640.091 47.8721V39.4241H637.019V37.1681H645.779V39.4241H642.731V47.8721H640.091ZM652.893 40.5761C655.341 40.5761 656.901 41.9681 656.901 44.2241C656.901 46.5281 655.341 47.8721 652.893 47.8721H647.733V37.1681H650.373V40.5761H652.893ZM652.365 45.8561C653.589 45.8561 654.285 45.2801 654.285 44.2241C654.285 43.1441 653.589 42.5921 652.365 42.5921H650.373V45.8561H652.365ZM669.269 48.1841C666.557 48.1841 663.749 46.2641 663.749 42.5201C663.749 39.0161 666.317 36.8801 669.389 36.8801C670.949 36.8801 672.245 37.3361 673.373 38.3201L672.101 40.0721C671.333 39.4241 670.613 39.1601 669.581 39.1601C667.781 39.1601 666.389 40.4801 666.389 42.5201C666.389 44.6321 667.805 45.8801 669.533 45.8801C670.685 45.8801 671.477 45.5201 672.269 44.7761L673.589 46.5281C672.389 47.6321 671.165 48.1841 669.269 48.1841ZM682.875 42.3761C683.955 42.7361 684.651 43.6001 684.651 44.8961C684.651 46.7921 683.235 47.8721 681.147 47.8721H675.483V37.1681H680.739C682.779 37.1681 684.171 38.2721 684.171 40.0241C684.171 41.2001 683.667 41.9201 682.875 42.3761ZM680.211 39.0641H678.027V41.5601H680.211C681.243 41.5601 681.675 40.9601 681.675 40.2641C681.675 39.6161 681.243 39.0641 680.211 39.0641ZM680.499 45.9761C681.555 45.9761 682.035 45.4481 682.035 44.6801C682.035 43.9121 681.555 43.3601 680.499 43.3601H678.027V45.9761H680.499ZM692.032 48.1841C688.672 48.1841 686.296 45.8321 686.296 42.5201C686.296 39.2081 688.672 36.8801 692.032 36.8801C695.392 36.8801 697.792 39.2081 697.792 42.5201C697.792 45.8321 695.392 48.1841 692.032 48.1841ZM692.032 45.8561C693.88 45.8561 695.128 44.4881 695.128 42.5201C695.128 40.5521 693.88 39.1841 692.032 39.1841C690.208 39.1841 688.936 40.5521 688.936 42.5201C688.936 44.4881 690.208 45.8561 692.032 45.8561ZM710.17 36.8801C713.554 36.8801 715.906 39.2321 715.906 42.5201C715.906 45.8321 713.554 48.1601 710.17 48.1601C707.17 48.1601 705.034 46.3121 704.602 43.5761H702.802V47.8721H700.186V37.1681H702.802V41.3441H704.626C705.106 38.6801 707.218 36.8801 710.17 36.8801ZM710.17 45.8561C711.994 45.8561 713.242 44.4881 713.242 42.5201C713.242 40.5521 711.994 39.2081 710.17 39.2081C708.37 39.2081 707.146 40.5521 707.146 42.5201C707.146 44.4881 708.37 45.8561 710.17 45.8561ZM728.566 42.3521L733.174 47.7521V47.8721H730.174L726.31 43.3121V47.8721H723.694V37.1681H726.31V41.4161L729.838 37.1681H732.814V37.2641L728.566 42.3521ZM742.242 42.3761C743.322 42.7361 744.018 43.6001 744.018 44.8961C744.018 46.7921 742.602 47.8721 740.514 47.8721H734.85V37.1681H740.106C742.146 37.1681 743.538 38.2721 743.538 40.0241C743.538 41.2001 743.034 41.9201 742.242 42.3761ZM739.578 39.0641H737.394V41.5601H739.578C740.61 41.5601 741.042 40.9601 741.042 40.2641C741.042 39.6161 740.61 39.0641 739.578 39.0641ZM739.866 45.9761C740.922 45.9761 741.402 45.4481 741.402 44.6801C741.402 43.9121 740.922 43.3601 739.866 43.3601H737.394V45.9761H739.866ZM750.724 36.9761C753.46 36.9761 755.14 38.3681 755.14 40.9601V47.8721H753.388L752.908 46.2641C752.116 47.3921 750.844 48.0881 749.092 48.0881C747.124 48.0881 745.732 46.9841 745.732 45.0881C745.732 42.6401 747.892 41.2961 751.156 41.2961C751.708 41.2961 752.116 41.3201 752.5 41.3441V40.8641C752.5 39.7601 751.684 39.2081 750.316 39.2081C749.26 39.2081 748.084 39.5441 746.98 40.0721L746.236 38.0801C747.82 37.3601 749.284 36.9761 750.724 36.9761ZM749.86 46.1201C751.396 46.1201 752.524 44.9921 752.572 43.0481C752.14 43.0001 751.804 42.9761 751.324 42.9761C749.428 42.9761 748.324 43.6481 748.324 44.8241C748.324 45.6641 748.9 46.1201 749.86 46.1201ZM757.067 48.0401L756.779 45.7601C758.603 45.5681 759.131 44.5601 759.323 42.4481L759.779 37.1681H767.555V47.8721H764.939V39.4241H762.083L761.843 42.6161C761.531 46.3121 760.259 47.8241 757.067 48.0401ZM779.112 37.1681H780.12V47.8721H777.528V42.9761C777.528 42.5681 777.528 42.1601 777.576 41.7281C777.264 42.1121 776.952 42.4481 776.616 42.7841L771.624 47.8961H770.616V37.1681H773.208V41.9681C773.208 42.4241 773.208 42.8561 773.16 43.2881C773.52 42.8561 773.88 42.4721 774.24 42.0881L779.112 37.1681ZM796.762 42.5201C796.762 45.6641 794.458 47.9201 790.93 48.1361V53.2001H788.338V48.1361C784.69 47.9441 782.53 45.6881 782.53 42.5201C782.53 39.3521 784.69 37.0961 788.338 36.9041V31.0961H790.93V36.9041C794.482 37.0961 796.762 39.3761 796.762 42.5201ZM785.098 42.5201C785.098 44.5121 786.322 45.7361 788.41 45.9041V39.1361C786.322 39.3041 785.098 40.5281 785.098 42.5201ZM790.882 45.9041C792.946 45.7361 794.17 44.5121 794.17 42.5201C794.17 40.5281 792.946 39.3041 790.882 39.1361V45.9041ZM807.659 37.1681H808.667V47.8721H806.075V42.9761C806.075 42.5681 806.075 42.1601 806.123 41.7281C805.811 42.1121 805.499 42.4481 805.163 42.7841L800.171 47.8961H799.163V37.1681H801.755V41.9681C801.755 42.4241 801.755 42.8561 801.707 43.2881C802.067 42.8561 802.427 42.4721 802.787 42.0881L807.659 37.1681ZM816.621 42.3521L821.229 47.7521V47.8721H818.229L814.365 43.3121V47.8721H811.749V37.1681H814.365V41.4161L817.893 37.1681H820.869V37.2641L816.621 42.3521ZM826.919 36.9761C829.655 36.9761 831.335 38.3681 831.335 40.9601V47.8721H829.583L829.103 46.2641C828.311 47.3921 827.039 48.0881 825.287 48.0881C823.319 48.0881 821.927 46.9841 821.927 45.0881C821.927 42.6401 824.087 41.2961 827.351 41.2961C827.903 41.2961 828.311 41.3201 828.695 41.3441V40.8641C828.695 39.7601 827.879 39.2081 826.511 39.2081C825.455 39.2081 824.279 39.5441 823.175 40.0721L822.431 38.0801C824.015 37.3601 825.479 36.9761 826.919 36.9761ZM826.055 46.1201C827.591 46.1201 828.719 44.9921 828.767 43.0481C828.335 43.0001 827.999 42.9761 827.519 42.9761C825.623 42.9761 824.519 43.6481 824.519 44.8241C824.519 45.6641 825.095 46.1201 826.055 46.1201ZM843.776 45.6161H845.288V50.6081H842.888V47.8721H834.272V37.1681H836.888V45.6161H841.16V37.1681H843.776V45.6161ZM855.776 37.1681H856.784V47.8721H854.192V42.9761C854.192 42.5681 854.192 42.1601 854.24 41.7281C853.928 42.1121 853.616 42.4481 853.28 42.7841L848.288 47.8961H847.28V37.1681H849.872V41.9681C849.872 42.4241 849.872 42.8561 849.824 43.2881C850.184 42.8561 850.544 42.4721 850.904 42.0881L855.776 37.1681ZM869.85 36.8801C873.234 36.8801 875.586 39.2321 875.586 42.5201C875.586 45.8321 873.234 48.1601 869.85 48.1601C866.85 48.1601 864.714 46.3121 864.282 43.5761H862.482V47.8721H859.866V37.1681H862.482V41.3441H864.306C864.786 38.6801 866.898 36.8801 869.85 36.8801ZM869.85 45.8561C871.674 45.8561 872.922 44.4881 872.922 42.5201C872.922 40.5521 871.674 39.2081 869.85 39.2081C868.05 39.2081 866.826 40.5521 866.826 42.5201C866.826 44.4881 868.05 45.8561 869.85 45.8561Z" fill="white"/>
</svg>
