<svg width="56" height="56" viewBox="0 0 56 56" fill="none" xmlns="http://www.w3.org/2000/svg">
<path d="M24.205 4.6202C26.1725 2.45993 29.5714 2.45993 31.5389 4.6202L34.0688 7.39819C35.063 8.48998 36.4921 9.08192 37.9674 9.01298L41.7206 8.83758C44.6391 8.70117 47.0428 11.1047 46.9064 14.0234L46.7309 17.7767C46.6619 19.2517 47.2539 20.6808 48.3457 21.6751L51.1237 24.205C53.2841 26.1725 53.2841 29.5714 51.1237 31.5389L48.3457 34.0688C47.2539 35.063 46.6619 36.4921 46.7309 37.9674L46.9064 41.7206C47.0428 44.6391 44.6391 47.0428 41.7206 46.9064L37.9674 46.7309C36.4921 46.6619 35.063 47.2539 34.0688 48.3457L31.5389 51.1237C29.5714 53.2841 26.1725 53.2841 24.205 51.1237L21.6751 48.3457C20.6808 47.2539 19.2517 46.6619 17.7767 46.7309L14.0234 46.9064C11.1047 47.0428 8.70117 44.6391 8.83758 41.7206L9.01298 37.9674C9.08192 36.4921 8.48998 35.063 7.39819 34.0688L4.6202 31.5389C2.45993 29.5714 2.45993 26.1725 4.6202 24.205L7.39819 21.6751C8.48998 20.6808 9.08192 19.2517 9.01298 17.7767L8.83758 14.0234C8.70117 11.1047 11.1047 8.70117 14.0234 8.83758L17.7767 9.01298C19.2517 9.08192 20.6808 8.48998 21.6751 7.39819L24.205 4.6202Z" stroke="white" stroke-width="5"/>
<path d="M20.4324 27.872L25.392 32.8317L35.3114 22.9124" stroke="white" stroke-width="5" stroke-linecap="round" stroke-linejoin="round"/>
</svg>
