<svg width="89" height="89" viewBox="0 0 89 89" fill="none" xmlns="http://www.w3.org/2000/svg">
<circle cx="44.5" cy="44.5" r="44.5" fill="#4F5F76"/>
<g clip-path="url(#clip0_551_895)">
<path d="M46.8116 74.5117C46.4857 74.2855 46.3077 73.9971 46.2642 73.5789C46.1763 72.7385 46.0024 71.9064 45.9165 71.0659C45.8814 70.7246 45.7168 70.6405 45.4395 70.5928C44.5744 70.4455 43.7093 70.2919 42.8453 70.1363C42.45 70.0647 42.0568 69.99 41.9243 69.5147C41.8002 69.0707 42.0599 68.803 42.3372 68.528C43.2685 67.6077 44.1946 66.6822 45.0897 65.6217C44.8993 65.6217 44.7089 65.6217 44.5185 65.6217C40.0369 65.6217 35.5552 65.6249 31.0735 65.6197C29.6062 65.6176 28.5901 64.8384 28.3365 63.5269C28.2817 63.2415 28.2889 62.9427 28.2879 62.6501C28.2869 49.9481 28.2869 37.246 28.2869 24.543C28.2869 22.7116 28.6904 22.0964 30.3564 21.3877H60.6788C61.7032 21.7322 62.47 22.3371 62.6894 23.4587C62.7453 23.744 62.7463 24.0418 62.7463 24.3344C62.7494 32.8872 62.7505 41.4399 62.7422 49.9937C62.7422 50.3735 62.8125 50.609 63.1871 50.8041C64.0584 51.2575 64.5582 52.0253 64.6058 53.0069C64.6627 54.1897 64.939 55.2626 65.6292 56.2566C66.3608 57.3087 66.3401 58.4604 65.6168 59.5114C64.9546 60.4743 64.6545 61.5098 64.6058 62.6605C64.5893 63.0454 64.462 63.4439 64.3037 63.7998C64.1795 64.0809 64.2426 64.2231 64.4372 64.4161C65.8093 65.7763 67.168 67.1511 68.5391 68.5145C68.8329 68.8061 69.0927 69.0976 68.9519 69.5511C68.8081 70.0159 68.3994 70.0719 68.0072 70.1446C67.0272 70.3241 66.0473 70.5025 65.0384 70.6872C64.8976 71.6428 64.7393 72.5766 64.6327 73.5167C64.5851 73.9421 64.4351 74.2689 64.0926 74.5138H63.5752C63.244 74.2129 62.9005 73.9255 62.5849 73.6101C61.0017 72.0246 59.3957 70.4621 57.8632 68.8279C57.2619 68.1866 56.5717 67.8453 55.7563 67.8079C54.8499 67.7675 53.9734 67.8723 53.2584 68.6131C51.5116 70.4237 49.7152 72.1855 47.9354 73.9649C47.7429 74.1579 47.5308 74.3312 47.327 74.5138H46.8096L46.8116 74.5117ZM61.0762 49.7343C61.1165 49.7209 61.1558 49.7084 61.1962 49.6949C61.1962 49.5279 61.1962 49.3608 61.1962 49.1938C61.1962 40.9128 61.1962 32.6319 61.1962 24.351C61.1962 23.2439 60.894 22.9441 59.7796 22.9441C50.2792 22.9441 40.7778 22.9441 31.2774 22.9441C30.1267 22.9441 29.8401 23.2304 29.8401 24.3821C29.8401 37.1236 29.8401 49.864 29.8401 62.6055C29.8401 63.7925 30.1143 64.0664 31.3033 64.0675C36.2175 64.0675 41.1317 64.0675 46.0459 64.0675H46.5705C46.4463 63.4335 46.2559 62.8493 46.2332 62.259C46.197 61.3448 45.9559 60.5324 45.4302 59.7895C44.5082 58.4894 44.5423 57.1842 45.4602 55.8976C45.9579 55.2003 46.2021 54.4377 46.2156 53.5755C46.2384 52.1094 46.8458 50.996 48.2924 50.5022C49.2744 50.166 50.0381 49.5839 50.6683 48.7621C51.4971 47.681 52.6095 47.2867 53.9268 47.6851C54.9523 47.9954 55.9447 47.9923 56.9701 47.6841C58.2615 47.296 59.3429 47.6799 60.1987 48.7227C60.4822 49.0682 60.7844 49.3982 61.0772 49.7354L61.0762 49.7343ZM57.8404 66.6593C58.335 66.6977 58.6848 66.43 58.9445 66.0772C59.7703 64.9556 60.8278 64.1774 62.1482 63.7396C62.7525 63.5393 63.0671 63.0921 63.0785 62.4488C63.1033 61.0823 63.4779 59.8352 64.2902 58.7219C64.6876 58.1771 64.6927 57.5857 64.2964 57.0347C63.5058 55.9349 63.094 54.7158 63.0888 53.3607C63.0857 52.6178 62.6925 52.1633 62.023 51.9423C60.8061 51.5397 59.8127 50.8404 59.0614 49.7945C58.6196 49.1792 58.036 48.9551 57.2982 49.2C56.0637 49.6109 54.8281 49.6036 53.5926 49.2031C52.8341 48.9572 52.2432 49.2021 51.789 49.8329C51.0594 50.8477 50.0991 51.5449 48.9122 51.9247C48.1848 52.1571 47.7854 52.6437 47.7895 53.4126C47.7957 54.7583 47.3621 55.9484 46.5923 57.0358C46.198 57.5919 46.2104 58.175 46.5985 58.726C47.3559 59.7999 47.7885 60.9692 47.7833 62.2994C47.7802 63.1046 48.1972 63.6151 48.9712 63.8548C50.1126 64.2075 51.0191 64.8954 51.7362 65.849C51.88 66.0399 52.0404 66.2464 52.2412 66.3615C52.4823 66.4995 52.7999 66.6635 53.0421 66.6126C54.6481 66.2796 56.2437 66.0938 57.8414 66.6624L57.8404 66.6593ZM51.6317 67.9553C51.1598 67.4583 50.6259 66.9696 50.1809 66.4082C49.6387 65.7234 48.8481 65.517 48.1165 65.188C48.0368 65.1528 47.8712 65.1984 47.804 65.2659C46.643 66.4186 45.4912 67.5807 44.2774 68.8019C45.0608 68.9493 45.7624 69.1007 46.4712 69.2097C47.0134 69.2927 47.2876 69.5677 47.3456 70.1207C47.4108 70.7432 47.5267 71.3596 47.6208 71.9769C48.9971 70.598 50.334 69.2574 51.6317 67.9573V67.9553ZM63.2678 71.9956C63.3641 71.3606 63.48 70.7505 63.541 70.1363C63.599 69.5604 63.8835 69.2844 64.4496 69.2035C65.1501 69.1028 65.8424 68.9462 66.6361 68.7947C65.4078 67.5682 64.2664 66.4207 63.1075 65.2897C63.0205 65.2046 62.797 65.1932 62.6635 65.2347C61.7022 65.5325 60.8847 66.0451 60.3021 66.8938C60.0093 67.3203 59.7009 67.7363 59.4133 68.1379C60.536 69.2626 61.874 70.6021 63.2668 71.9977L63.2678 71.9956Z" fill="white"/>
<path d="M45.516 27.4834C48.758 27.4834 51.999 27.4834 55.241 27.4834C55.4303 27.4834 55.6228 27.474 55.8091 27.5041C56.1971 27.5674 56.4216 27.8071 56.4465 28.2034C56.4713 28.5977 56.2882 28.8768 55.9074 28.9827C55.7128 29.0366 55.4986 29.0366 55.2937 29.0366C48.7766 29.0387 42.2585 29.0387 35.7414 29.0366C35.5365 29.0366 35.3234 29.0366 35.1278 28.9827C34.746 28.8779 34.5638 28.5988 34.5876 28.2045C34.6114 27.8081 34.836 27.5674 35.224 27.5031C35.4093 27.473 35.6017 27.4823 35.7921 27.4823C39.0341 27.4823 42.2751 27.4823 45.5171 27.4823L45.516 27.4834Z" fill="white"/>
<path d="M45.514 41.2316C42.2731 41.2316 39.0311 41.2316 35.7901 41.2316C35.6008 41.2316 35.4073 41.242 35.2231 41.2098C34.836 41.1445 34.6125 40.9027 34.5898 40.5064C34.567 40.111 34.7512 39.833 35.132 39.7292C35.3265 39.6763 35.5407 39.6773 35.7456 39.6773C42.2627 39.6753 48.7808 39.6753 55.2979 39.6773C55.5028 39.6773 55.717 39.6773 55.9116 39.7313C56.2924 39.8371 56.4745 40.1173 56.4476 40.5116C56.4207 40.9079 56.1941 41.1465 55.8081 41.2098C55.6229 41.2399 55.4304 41.2306 55.24 41.2306C51.999 41.2306 48.757 41.2306 45.5161 41.2306L45.514 41.2316Z" fill="white"/>
<path d="M45.572 33.5857C48.813 33.5857 52.055 33.5857 55.2959 33.5867C55.4853 33.5867 55.6788 33.5816 55.8619 33.6189C56.2272 33.6936 56.4269 33.9374 56.4466 34.3089C56.4673 34.7021 56.2852 34.9813 55.9044 35.085C55.7088 35.1379 55.4946 35.139 55.2897 35.139C48.7726 35.141 42.2555 35.141 35.7384 35.139C35.5325 35.139 35.3193 35.1379 35.1238 35.0829C34.743 34.9771 34.565 34.6949 34.5888 34.3016C34.6115 33.9291 34.8133 33.6884 35.1786 33.6168C35.3628 33.5805 35.5563 33.5867 35.7446 33.5867C39.0208 33.5847 42.2959 33.5857 45.572 33.5857Z" fill="white"/>
<path d="M38.3253 59.5445C37.394 59.5445 36.4637 59.5496 35.5324 59.5424C34.9167 59.5372 34.5845 59.255 34.5835 58.7611C34.5835 58.262 34.9022 57.9922 35.5334 57.9912C37.395 57.986 39.2566 57.986 41.1192 57.9912C41.7484 57.9933 42.0691 58.2641 42.0681 58.7632C42.0681 59.255 41.7328 59.5382 41.1182 59.5434C40.1869 59.5507 39.2566 59.5455 38.3253 59.5455V59.5445Z" fill="white"/>
<path d="M38.3254 53.4407C37.394 53.4407 36.4627 53.4449 35.5325 53.4397C34.9219 53.4366 34.5846 53.1512 34.5846 52.6594C34.5846 52.1655 34.9157 51.8885 35.5356 51.8864C37.3982 51.8823 39.2598 51.8823 41.1224 51.8864C41.7401 51.8875 42.0723 52.1666 42.0713 52.6615C42.0713 53.1523 41.7308 53.4366 41.1203 53.4397C40.189 53.4449 39.2577 53.4407 38.3274 53.4407H38.3254Z" fill="white"/>
<path d="M55.4448 64.3029C52.1997 64.2303 49.5848 61.9216 49.1202 58.674C49.0385 58.1034 49.2961 57.6914 49.7763 57.623C50.2202 57.5607 50.5606 57.8761 50.6517 58.4343C51.0832 61.0937 53.0565 62.7683 55.6663 62.6895C58.0494 62.6179 60.0858 60.6433 60.2545 58.2403C60.4263 55.8051 58.7417 53.5754 56.3979 53.1354C54.2486 52.7318 52.2318 53.6936 51.1743 55.6246C50.8669 56.1849 50.5461 56.3685 50.1219 56.2233C49.6459 56.0604 49.471 55.5468 49.7431 55.0217C50.7003 53.1738 52.2018 52.0045 54.2331 51.604C57.6469 50.9326 60.923 53.1199 61.6784 56.52C62.4203 59.8579 60.3301 63.2207 56.9711 64.0642C56.4744 64.1888 55.9539 64.2251 55.4448 64.3019V64.3029Z" fill="white"/>
</g>
<defs>
<clipPath id="clip0_551_895">
<rect width="40.7054" height="53.124" fill="white" transform="translate(28.2869 21.3877)"/>
</clipPath>
</defs>
</svg>
